<mxfile host="app.diagrams.net" agent="Mozilla/5.0 (Windows NT 10.0; Win64; x64) AppleWebKit/537.36 (KHTML, like Gecko) Chrome/135.0.0.0 Safari/537.36" version="26.2.14">
  <diagram name="Page-1" id="AZMGFixjYGibxLiDQiT5">
    <mxGraphModel dx="872" dy="431" grid="1" gridSize="10" guides="1" tooltips="1" connect="1" arrows="1" fold="1" page="1" pageScale="1" pageWidth="1169" pageHeight="1654" math="0" shadow="0">
      <root>
        <mxCell id="0" />
        <mxCell id="1" parent="0" />
        <mxCell id="wsYsebDAmDsdbdRZcr__-4" style="edgeStyle=orthogonalEdgeStyle;rounded=0;orthogonalLoop=1;jettySize=auto;html=1;exitX=1;exitY=0.25;exitDx=0;exitDy=0;entryX=0;entryY=0.25;entryDx=0;entryDy=0;" edge="1" parent="1" source="wsYsebDAmDsdbdRZcr__-1" target="wsYsebDAmDsdbdRZcr__-3">
          <mxGeometry relative="1" as="geometry" />
        </mxCell>
        <mxCell id="wsYsebDAmDsdbdRZcr__-1" value="a User" style="rounded=0;whiteSpace=wrap;html=1;" vertex="1" parent="1">
          <mxGeometry x="200" y="100" width="120" height="60" as="geometry" />
        </mxCell>
        <mxCell id="wsYsebDAmDsdbdRZcr__-2" value="a&amp;nbsp;UserDatabase" style="rounded=0;whiteSpace=wrap;html=1;" vertex="1" parent="1">
          <mxGeometry x="405" y="300" width="120" height="60" as="geometry" />
        </mxCell>
        <mxCell id="wsYsebDAmDsdbdRZcr__-6" style="edgeStyle=orthogonalEdgeStyle;rounded=0;orthogonalLoop=1;jettySize=auto;html=1;exitX=0.25;exitY=1;exitDx=0;exitDy=0;entryX=1;entryY=0.25;entryDx=0;entryDy=0;" edge="1" parent="1" source="wsYsebDAmDsdbdRZcr__-3" target="wsYsebDAmDsdbdRZcr__-2">
          <mxGeometry relative="1" as="geometry" />
        </mxCell>
        <mxCell id="wsYsebDAmDsdbdRZcr__-8" style="edgeStyle=orthogonalEdgeStyle;rounded=0;orthogonalLoop=1;jettySize=auto;html=1;exitX=0;exitY=0.5;exitDx=0;exitDy=0;entryX=1;entryY=0.5;entryDx=0;entryDy=0;" edge="1" parent="1" source="wsYsebDAmDsdbdRZcr__-3" target="wsYsebDAmDsdbdRZcr__-1">
          <mxGeometry relative="1" as="geometry" />
        </mxCell>
        <mxCell id="wsYsebDAmDsdbdRZcr__-16" style="edgeStyle=orthogonalEdgeStyle;rounded=0;orthogonalLoop=1;jettySize=auto;html=1;exitX=0.75;exitY=1;exitDx=0;exitDy=0;entryX=1;entryY=0.75;entryDx=0;entryDy=0;" edge="1" parent="1" source="wsYsebDAmDsdbdRZcr__-3" target="wsYsebDAmDsdbdRZcr__-2">
          <mxGeometry relative="1" as="geometry">
            <Array as="points">
              <mxPoint x="680" y="160" />
              <mxPoint x="680" y="345" />
            </Array>
          </mxGeometry>
        </mxCell>
        <mxCell id="wsYsebDAmDsdbdRZcr__-3" value="a System" style="rounded=0;whiteSpace=wrap;html=1;" vertex="1" parent="1">
          <mxGeometry x="570" y="100" width="120" height="60" as="geometry" />
        </mxCell>
        <mxCell id="wsYsebDAmDsdbdRZcr__-5" value="1:register()" style="text;html=1;align=center;verticalAlign=middle;whiteSpace=wrap;rounded=0;" vertex="1" parent="1">
          <mxGeometry x="320" y="90" width="60" height="30" as="geometry" />
        </mxCell>
        <mxCell id="wsYsebDAmDsdbdRZcr__-7" value="2:saveUser()" style="text;html=1;align=center;verticalAlign=middle;whiteSpace=wrap;rounded=0;" vertex="1" parent="1">
          <mxGeometry x="610" y="220" width="60" height="30" as="geometry" />
        </mxCell>
        <mxCell id="wsYsebDAmDsdbdRZcr__-9" value="3:showWelcome()" style="text;html=1;align=center;verticalAlign=middle;whiteSpace=wrap;rounded=0;" vertex="1" parent="1">
          <mxGeometry x="420" y="130" width="60" height="30" as="geometry" />
        </mxCell>
        <mxCell id="wsYsebDAmDsdbdRZcr__-13" value="4:login()" style="text;html=1;align=center;verticalAlign=middle;whiteSpace=wrap;rounded=0;" vertex="1" parent="1">
          <mxGeometry x="390" y="90" width="60" height="30" as="geometry" />
        </mxCell>
        <mxCell id="wsYsebDAmDsdbdRZcr__-15" value="5:&amp;nbsp;verifyCredentials()" style="text;html=1;align=center;verticalAlign=middle;whiteSpace=wrap;rounded=0;" vertex="1" parent="1">
          <mxGeometry x="710" y="230" width="60" height="30" as="geometry" />
        </mxCell>
        <mxCell id="wsYsebDAmDsdbdRZcr__-17" value="6:&lt;span style=&quot;background-color: transparent;&quot;&gt;showDashboard()&lt;/span&gt;&lt;div&gt;&lt;span style=&quot;background-color: transparent; color: light-dark(rgb(0, 0, 0), rgb(255, 255, 255));&quot;&gt;&lt;br&gt;&lt;/span&gt;&lt;/div&gt;" style="text;html=1;align=center;verticalAlign=middle;whiteSpace=wrap;rounded=0;" vertex="1" parent="1">
          <mxGeometry x="420" y="160" width="60" height="30" as="geometry" />
        </mxCell>
        <mxCell id="wsYsebDAmDsdbdRZcr__-18" value="7:deactivateAccount()" style="text;html=1;align=center;verticalAlign=middle;whiteSpace=wrap;rounded=0;" vertex="1" parent="1">
          <mxGeometry x="480" y="90" width="60" height="30" as="geometry" />
        </mxCell>
        <mxCell id="wsYsebDAmDsdbdRZcr__-19" value="8:deactivateUser()" style="text;html=1;align=center;verticalAlign=middle;whiteSpace=wrap;rounded=0;" vertex="1" parent="1">
          <mxGeometry x="710" y="260" width="60" height="30" as="geometry" />
        </mxCell>
        <mxCell id="wsYsebDAmDsdbdRZcr__-20" value="9:&lt;span style=&quot;background-color: transparent;&quot;&gt;showDeactivationNotice()&lt;/span&gt;&lt;div&gt;&lt;span style=&quot;background-color: transparent; color: light-dark(rgb(0, 0, 0), rgb(255, 255, 255));&quot;&gt;&lt;br&gt;&lt;/span&gt;&lt;/div&gt;" style="text;html=1;align=center;verticalAlign=middle;whiteSpace=wrap;rounded=0;" vertex="1" parent="1">
          <mxGeometry x="420" y="180" width="60" height="30" as="geometry" />
        </mxCell>
      </root>
    </mxGraphModel>
  </diagram>
</mxfile>
